<?xml version="1.0" encoding="utf-8"?>
<!-- Generator: Adobe Illustrator 16.0.3, SVG Export Plug-In . SVG Version: 6.00 Build 0)  -->
<!DOCTYPE svg PUBLIC "-//W3C//DTD SVG 1.1//EN" "http://www.w3.org/Graphics/SVG/1.1/DTD/svg11.dtd">
<svg version="1.1" id="_x32_" xmlns="http://www.w3.org/2000/svg" xmlns:xlink="http://www.w3.org/1999/xlink" x="0px" y="0px"
	 width="25px" height="25.002px" viewBox="0 0 25 25.002" enable-background="new 0 0 25 25.002" xml:space="preserve">
<path fill="#7A1119" d="M12.498,0L0,12.504l12.498,12.498L25,12.504L12.498,0z M6.237,16.646c0.41-0.239,0.814-0.655,0.903-1.412
	c0.196-1.639-1.173-1.75-1.173-1.75s1.987-0.608,2.641,1.016c0.259,0.658,0.175,1.509,0.175,1.509s0.779-0.631,0.721-2.457
	c-0.049-1.527-1.742-2.301-1.742-2.301s1.612-0.596,2.994,1.163c0.676,0.86,0.443,2.409,0.443,2.409s0.99-0.842,0.694-2.924
	c-0.237-1.634-2.251-3.29-2.251-3.29s2.722-0.317,4.279,2.543c0.717,1.312,0.704,3.102,0.704,3.102s0.663-0.979,0.733-2.162
	c0.099-1.643-1.069-2.762-1.069-2.762s1.776-0.018,2.6,1.495c0.743,1.365-0.313,3.066-0.313,3.066s1.513-1.19,1.361-3.541
	c-0.161-2.466-2.74-3.07-2.74-3.07s1.952-0.551,2.955,0.3c0.009,0.008,0.017,0.013,0.026,0.021l4.894,4.895L12.578,22.988
	L6.237,16.646z"/>
</svg>
