<?xml version="1.0" encoding="utf-8"?>
<!-- Generator: Adobe Illustrator 16.0.3, SVG Export Plug-In . SVG Version: 6.00 Build 0)  -->
<!DOCTYPE svg PUBLIC "-//W3C//DTD SVG 1.1//EN" "http://www.w3.org/Graphics/SVG/1.1/DTD/svg11.dtd">
<svg version="1.1" id="_x32_" xmlns="http://www.w3.org/2000/svg" xmlns:xlink="http://www.w3.org/1999/xlink" x="0px" y="0px"
	 width="25px" height="25.004px" viewBox="0 0 25 25.004" enable-background="new 0 0 25 25.004" xml:space="preserve">
<g>
	<path fill="#7A1119" d="M12.496,0L0,12.5l12.496,12.504L25,12.5L12.496,0z M12.998,7.883c1.038,0,2.015,0.404,2.75,1.14
		c0.735,0.733,1.134,1.71,1.134,2.75c0,2.141-1.744,3.882-3.883,3.882c-1.037,0-2.015-0.405-2.749-1.134
		c-0.735-0.737-1.137-1.714-1.137-2.748c0-0.344,0.059-0.675,0.145-0.998c-0.041-0.161-0.069-0.326-0.069-0.498
		c0-1.143,0.951-2.069,2.125-2.069c0.041,0,0.079,0.01,0.119,0.012C11.92,8.003,12.449,7.883,12.998,7.883z M3.626,12.707
		c2.587-3.169,5.028-4.624,7.219-5.071c-1.497,0.783-2.533,2.333-2.533,4.137c0,1.246,0.489,2.424,1.372,3.31
		c0.883,0.88,2.061,1.366,3.313,1.366c1.248,0,2.42-0.486,3.306-1.366c0.886-0.886,1.372-2.063,1.372-3.31
		c0-1.207-0.46-2.335-1.285-3.208c2.834,1.559,4.553,4.231,4.553,4.231S13.058,24.821,3.626,12.707z"/>
	<path fill="#7A1119" d="M13.441,10.276c0,1.143-0.956,2.071-2.128,2.071c-0.141,0-0.278-0.016-0.412-0.041
		c0.091,0.429,0.301,0.821,0.617,1.136c0.432,0.436,1.01,0.673,1.62,0.673c1.264,0,2.29-1.026,2.29-2.29
		c0-0.612-0.238-1.188-0.67-1.618c-0.399-0.395-0.907-0.618-1.46-0.656C13.386,9.777,13.441,10.02,13.441,10.276z"/>
</g>
</svg>
