<?xml version="1.0" encoding="utf-8"?>
<!-- Generator: Adobe Illustrator 16.0.3, SVG Export Plug-In . SVG Version: 6.00 Build 0)  -->
<!DOCTYPE svg PUBLIC "-//W3C//DTD SVG 1.1//EN" "http://www.w3.org/Graphics/SVG/1.1/DTD/svg11.dtd">
<svg version="1.1" id="_x32_" xmlns="http://www.w3.org/2000/svg" xmlns:xlink="http://www.w3.org/1999/xlink" x="0px" y="0px"
	 width="25px" height="25px" viewBox="0 0 25 25" enable-background="new 0 0 25 25" xml:space="preserve">
<g>
	<path fill="#7A1119" d="M12.5,0L0,12.5L12.5,25L25,12.5L12.5,0z M2.008,12.5L12.5,2.008L22.993,12.5L12.5,22.993L2.008,12.5z"/>
	<path fill="#7A1119" d="M12.493,3.146l-9.356,9.353l9.356,9.355l9.352-9.355L12.493,3.146z M17.27,8.18l-3.114,2.666l-1.188-4.761
		C14.671,6.206,16.189,6.989,17.27,8.18z M13.523,12.835l0.663,2.712l-1.742-1.784L13.523,12.835z M11.671,12.975l-1.227-1.261
		l2.045-3.118l0.742,3.042L11.671,12.975z M12.512,6.063c0.104,0,0.205,0.011,0.309,0.016l-3.165,4.829L7.403,8.601
		C8.578,7.061,10.426,6.063,12.512,6.063z M6.083,12.491c0-1.058,0.26-2.053,0.712-2.933l2.247,2.285l-2.288,3.493
		C6.329,14.477,6.083,13.513,6.083,12.491z M9.833,12.642l1.019,1.038l-3.458,2.682L9.833,12.642z M12.512,18.918
		c-1.619,0-3.094-0.604-4.225-1.592l3.338-2.862l3.726,3.786C14.493,18.674,13.532,18.918,12.512,18.918z M15.926,17.929
		l-1.471-5.89l3.483-2.982c0.63,0.994,1.001,2.17,1.001,3.434C18.939,14.784,17.734,16.792,15.926,17.929z"/>
</g>
</svg>
