<?xml version="1.0" encoding="utf-8"?>
<!-- Generator: Adobe Illustrator 16.0.3, SVG Export Plug-In . SVG Version: 6.00 Build 0)  -->
<!DOCTYPE svg PUBLIC "-//W3C//DTD SVG 1.1//EN" "http://www.w3.org/Graphics/SVG/1.1/DTD/svg11.dtd">
<svg version="1.1" id="_x32_" xmlns="http://www.w3.org/2000/svg" xmlns:xlink="http://www.w3.org/1999/xlink" x="0px" y="0px"
	 width="25px" height="25px" viewBox="0 0 25 25" enable-background="new 0 0 25 25" xml:space="preserve">
<path fill="#7A1119" d="M12.507,0L25,12.492L12.507,25L0,12.492L12.507,0z M3.993,12.433c0,1.75,0.481,3.356,1.45,4.812
	c0.225,0.348,0.583,0.781,1.071,1.295c0.545,0.509,1.006,0.883,1.38,1.114c1.424,0.894,2.961,1.343,4.614,1.343
	c1.89,0,3.618-0.595,5.187-1.777c0.235-0.161,0.61-0.498,1.118-1.017c0.477-0.567,0.803-1.006,0.969-1.328
	c0.311-0.46,0.6-1.102,0.868-1.933c0.235-0.829,0.353-1.594,0.353-2.302v-0.304c0-1.252-0.322-2.511-0.947-3.784
	c-0.964-1.772-2.356-3.067-4.181-3.875c-0.042,0.481-0.101,1.536-0.16,3.174c-0.07,0.835-0.15,1.52-0.246,2.045
	c-0.135,0.642-0.285,1.204-0.445,1.691c-0.278,0.685-0.616,1.326-1.018,1.921c-0.208,0.311-0.546,0.712-1.017,1.21
	c-0.459,0.454-0.834,0.781-1.118,0.984h-0.01l0.101-11.7c-0.277,0-0.775,0.07-1.509,0.226C9.837,4.394,9.302,4.586,8.842,4.79
	C8.359,5.025,7.851,5.341,7.306,5.737C7.021,5.973,6.749,6.214,6.487,6.466C5.914,7.081,5.506,7.59,5.271,8.006
	C5.009,8.397,4.763,8.912,4.527,9.527C4.169,10.543,3.993,11.512,3.993,12.433"/>
</svg>
