<?xml version="1.0" encoding="utf-8"?>
<!-- Generator: Adobe Illustrator 16.0.3, SVG Export Plug-In . SVG Version: 6.00 Build 0)  -->
<!DOCTYPE svg PUBLIC "-//W3C//DTD SVG 1.1//EN" "http://www.w3.org/Graphics/SVG/1.1/DTD/svg11.dtd">
<svg version="1.1" id="_x32_" xmlns="http://www.w3.org/2000/svg" xmlns:xlink="http://www.w3.org/1999/xlink" x="0px" y="0px"
	 width="25px" height="25px" viewBox="0 0 25 25" enable-background="new 0 0 25 25" xml:space="preserve">
<path fill="#7A1119" d="M12.511,0L25,12.495L12.511,25L0,12.495L12.511,0z M12.511,0L25,12.495L12.511,25L0,12.495L12.511,0z
	 M12.511,0L25,12.495L12.511,25L0,12.495L12.511,0z M12.044,6.475c-0.208-0.246-0.508-0.369-0.887-0.369l-0.06,0.016h-0.043
	c-0.621,0-1.007,0.203-1.156,0.605C9.787,7.01,9.723,7.277,9.717,7.545c0,0.016-0.101,0.037-0.299,0.059L9.123,7.657
	c0-0.075-0.074-0.272-0.225-0.594c-0.197-0.3-0.406-0.45-0.621-0.45c-0.545,0-0.866,0.048-0.973,0.14
	C7.182,6.796,7.02,6.93,6.812,7.165C6.598,7.454,6.447,7.728,6.373,7.979L6.32,8.107c0,0.085,0.23,1.84,0.707,5.271
	c0.101,0.75,0.192,1.562,0.278,2.457l1.257,0.016h0.535l-0.112-5.174c0.123-0.049,0.22-0.075,0.295-0.075h0.042
	c0.075,0,0.16,0.022,0.251,0.059l0.621,5.19l0.299,0.011l1.467,0.017l0.209-5.073c0.134-0.059,0.262-0.091,0.38-0.091
	c0.106,0,0.208,0.027,0.311,0.075l0.016,0.102l0.154,4.96h2.019l0.24-4.95c0.149-0.203,0.284-0.31,0.396-0.31
	c0.117,0,0.251,0.123,0.391,0.363l-0.054,4.603v0.294l1.027,0.011h1.295l0.343-8.256c-0.295-0.888-0.723-1.328-1.301-1.328h-0.042
	c-0.305,0-0.643,0.209-1.001,0.637l-0.283,0.262l-0.46-0.038c-0.272-0.781-0.493-1.214-0.663-1.3
	c-0.097-0.081-0.424-0.129-0.975-0.129h-0.01c-0.342,0-0.583,0.289-0.723,0.862c-0.026,0.063-0.08,0.251-0.155,0.567l-0.776,0.081
	C12.296,7.005,12.21,6.753,12.044,6.475 M12.044,6.475c-0.208-0.246-0.508-0.369-0.887-0.369l-0.06,0.016h-0.043
	c-0.621,0-1.007,0.203-1.156,0.605C9.787,7.01,9.723,7.277,9.717,7.545c0,0.016-0.101,0.037-0.299,0.059L9.123,7.657
	c0-0.075-0.074-0.272-0.225-0.594c-0.197-0.3-0.406-0.45-0.621-0.45c-0.545,0-0.866,0.048-0.973,0.14
	C7.182,6.796,7.02,6.93,6.812,7.165C6.598,7.454,6.447,7.728,6.373,7.979L6.32,8.107c0,0.085,0.23,1.84,0.707,5.271
	c0.101,0.75,0.192,1.562,0.278,2.457l1.257,0.016h0.535l-0.112-5.174c0.123-0.049,0.22-0.075,0.295-0.075h0.042
	c0.075,0,0.16,0.022,0.251,0.059l0.621,5.19l0.299,0.011l1.467,0.017l0.209-5.073c0.134-0.059,0.262-0.091,0.38-0.091
	c0.106,0,0.208,0.027,0.311,0.075l0.016,0.102l0.154,4.96h2.019l0.24-4.95c0.149-0.203,0.284-0.31,0.396-0.31
	c0.117,0,0.251,0.123,0.391,0.363l-0.054,4.603v0.294l1.027,0.011h1.295l0.343-8.256c-0.295-0.888-0.723-1.328-1.301-1.328h-0.042
	c-0.305,0-0.643,0.209-1.001,0.637l-0.283,0.262l-0.46-0.038c-0.272-0.781-0.493-1.214-0.663-1.3
	c-0.097-0.081-0.424-0.129-0.975-0.129h-0.01c-0.342,0-0.583,0.289-0.723,0.862c-0.026,0.063-0.08,0.251-0.155,0.567l-0.776,0.081
	C12.296,7.005,12.21,6.753,12.044,6.475 M12.044,6.475c-0.208-0.246-0.508-0.369-0.887-0.369l-0.06,0.016h-0.043
	c-0.621,0-1.007,0.203-1.156,0.605C9.787,7.01,9.723,7.277,9.717,7.545c0,0.016-0.101,0.037-0.299,0.059L9.123,7.657
	c0-0.075-0.074-0.272-0.225-0.594c-0.197-0.3-0.406-0.45-0.621-0.45c-0.545,0-0.866,0.048-0.973,0.14
	C7.182,6.796,7.02,6.93,6.812,7.165C6.598,7.454,6.447,7.728,6.373,7.979L6.32,8.107c0,0.085,0.23,1.84,0.707,5.271
	c0.101,0.75,0.192,1.562,0.278,2.457l1.257,0.016h0.535l-0.112-5.174c0.123-0.049,0.22-0.075,0.295-0.075h0.042
	c0.075,0,0.16,0.022,0.251,0.059l0.621,5.19l0.299,0.011l1.467,0.017l0.209-5.073c0.134-0.059,0.262-0.091,0.38-0.091
	c0.106,0,0.208,0.027,0.311,0.075l0.016,0.102l0.154,4.96h2.019l0.24-4.95c0.149-0.203,0.284-0.31,0.396-0.31
	c0.117,0,0.251,0.123,0.391,0.363l-0.054,4.603v0.294l1.027,0.011h1.295l0.343-8.256c-0.295-0.888-0.723-1.328-1.301-1.328h-0.042
	c-0.305,0-0.643,0.209-1.001,0.637l-0.283,0.262l-0.46-0.038c-0.272-0.781-0.493-1.214-0.663-1.3
	c-0.097-0.081-0.424-0.129-0.975-0.129h-0.01c-0.342,0-0.583,0.289-0.723,0.862c-0.026,0.063-0.08,0.251-0.155,0.567l-0.776,0.081
	C12.296,7.005,12.21,6.753,12.044,6.475 M12.044,17.84c0,0.46,0.251,0.932,0.761,1.424l5.131,0.021v-2.884h-5.147
	C12.292,16.867,12.044,17.348,12.044,17.84 M12.044,17.84c0,0.46,0.251,0.932,0.761,1.424l5.131,0.021v-2.884h-5.147
	C12.292,16.867,12.044,17.348,12.044,17.84 M12.044,17.84c0,0.46,0.251,0.932,0.761,1.424l5.131,0.021v-2.884h-5.147
	C12.292,16.867,12.044,17.348,12.044,17.84"/>
</svg>
