<?xml version="1.0" encoding="utf-8"?>
<!-- Generator: Adobe Illustrator 16.0.3, SVG Export Plug-In . SVG Version: 6.00 Build 0)  -->
<!DOCTYPE svg PUBLIC "-//W3C//DTD SVG 1.1//EN" "http://www.w3.org/Graphics/SVG/1.1/DTD/svg11.dtd">
<svg version="1.1" id="_x32_" xmlns="http://www.w3.org/2000/svg" xmlns:xlink="http://www.w3.org/1999/xlink" x="0px" y="0px"
	 width="25px" height="24.996px" viewBox="0 0 25 24.996" enable-background="new 0 0 25 24.996" xml:space="preserve">
<path fill="#7A1119" d="M12.505,0L25,12.483L12.505,24.996L0,12.483L12.505,0z M2.285,10.964l-0.15,0.172v2.917l0.15,0.155h7.786
	c0.15,0,0.417-0.166,0.803-0.504c0.295-0.358,0.455-0.695,0.493-1.017c-0.049-0.305-0.235-0.648-0.563-1.027
	c-0.321-0.306-0.653-0.535-1-0.696H2.285z M8.621,6.849C8.363,6.913,8.118,7.074,7.882,7.325C7.689,7.631,7.587,8.031,7.587,8.54
	c0,0.498,0.086,0.915,0.257,1.258h9.471c0.134-0.444,0.199-0.83,0.199-1.156c0-0.995-0.311-1.579-0.932-1.755l-0.251-0.038H8.621z
	 M7.941,15.199c-0.112,0.085-0.171,0.149-0.171,0.197c-0.037,0.401-0.054,0.706-0.054,0.915c0,0.883,0.225,1.45,0.674,1.69
	c0.182,0.097,0.348,0.145,0.498,0.145h7.738c0.225-0.069,0.444-0.208,0.664-0.411c0.246-0.311,0.364-0.744,0.364-1.296v-0.24
	c0-0.332-0.08-0.664-0.242-1H7.941z M13.635,12.517c0.031,0.246,0.155,0.534,0.369,0.871c0.251,0.295,0.454,0.472,0.605,0.541
	c0.305,0.184,0.535,0.279,0.706,0.279h7.4l0.156-0.068v-2.935l-0.156-0.241h-7.753c-0.103,0.038-0.322,0.193-0.648,0.456
	C13.982,11.687,13.757,12.057,13.635,12.517"/>
</svg>
