<?xml version="1.0" encoding="utf-8"?>
<!-- Generator: Adobe Illustrator 16.0.3, SVG Export Plug-In . SVG Version: 6.00 Build 0)  -->
<!DOCTYPE svg PUBLIC "-//W3C//DTD SVG 1.1//EN" "http://www.w3.org/Graphics/SVG/1.1/DTD/svg11.dtd">
<svg version="1.1" id="_x32_" xmlns="http://www.w3.org/2000/svg" xmlns:xlink="http://www.w3.org/1999/xlink" x="0px" y="0px"
	 width="25px" height="25px" viewBox="0 0 25 25" enable-background="new 0 0 25 25" xml:space="preserve">
<path fill="#7A1119" d="M12.501,0L0,12.5L12.501,25L25,12.5L12.501,0z M14.088,5.64c0.514-0.145,0.44,0.49,0.514,0.787
	c0.565,0.733,1.102,1.57,1.379,2.457c0.169,0.931,0.218,2.135-0.495,2.77c-1.029,0.663-1.497-0.563-2.158-1.054
	c-0.27-1.376-0.422-3.144,0.587-4.247C13.819,6.13,13.843,5.813,14.088,5.64z M9.42,7.702c0.346-0.516,0.665-0.959,0.958-1.472
	c0.446,0.05,0.393,0.635,0.592,0.956c0.59,0.785,0.539,1.842,0.688,2.822c-0.098,0.619-0.15,1.276-0.811,1.597
	c-0.419,0.221-0.834,0.589-1.35,0.343c-0.445-0.167-0.42-0.735-0.493-1.177C9.152,9.841,8.93,8.588,9.42,7.702z M6.6,13.781
	c-0.541-0.789-0.195-1.82-0.299-2.828c-0.019-0.66,0.566-1.079,0.468-1.764C6.843,9.038,6.99,9.065,7.141,9.065
	c0.097,0.369,0.513,0.514,0.808,0.709c0.663,1.106,0.936,2.602,0.298,3.835C7.779,13.825,7.112,14.146,6.6,13.781z M15.609,17.783
	c-0.368,0.367-0.985,0.419-1.475,0.34c-1.372-0.737,0.296-2.136-0.71-3.042c-0.22-0.318-0.835-0.811-1.178-0.591l-0.049,0.05
	c0.417,0.318,0.612,0.908,0.343,1.349c-0.664,0.661-1.423,1.448-2.407,1.84c-0.636,0-1.204-0.19-1.717-0.536
	c-0.396-0.713-0.958-1.426-0.638-2.356c1.129-1.695,2.919-2.235,4.542-3.367c0.833-0.045,1.597,0.443,1.986,1.254
	c0.691,0.642,1.919,0.541,2.186,1.643C16.739,15.497,16.714,16.97,15.609,17.783z M17.846,14.646
	c-1.061,0.122-1.107-1.159-1.818-1.526c-0.418-1.204,0.733-1.739,0.885-2.771c0.245-0.345,0.563-0.446,0.933-0.468
	c0.193-0.223,0.371-1.153,0.784-0.543c-0.316,1.521,0.618,3.218-0.123,4.715C18.458,14.422,18.162,14.545,17.846,14.646z"/>
</svg>
