<?xml version="1.0" encoding="utf-8"?>
<!-- Generator: Adobe Illustrator 16.0.3, SVG Export Plug-In . SVG Version: 6.00 Build 0)  -->
<!DOCTYPE svg PUBLIC "-//W3C//DTD SVG 1.1//EN" "http://www.w3.org/Graphics/SVG/1.1/DTD/svg11.dtd">
<svg version="1.1" id="Layer_1" xmlns="http://www.w3.org/2000/svg" xmlns:xlink="http://www.w3.org/1999/xlink" x="0px" y="0px"
	 width="78.561px" height="95.66px" viewBox="0 0 78.561 95.66" enable-background="new 0 0 78.561 95.66" xml:space="preserve">
<path fill-rule="evenodd" clip-rule="evenodd" fill="#C03F3F" d="M78.529,32.96c0.031-0.49,0.031-0.98,0.031-1.47
	c0-2.881-0.281-5.761-0.91-8.66C75.42,12.57,69.98,5.07,59.49,2.439C53.6,0.97,47.426,0,39.279,0C31.967,0,24.971,0.97,19.08,2.439
	C8.59,5.07,3.15,12.57,0.92,22.83C0.289,25.729,0,28.62,0,31.5c0,0.479,0.01,0.96,0.029,1.439c0.111,2.561,0.57,5.17,1.42,7.841
	C1.91,42.22,1.811,44.07,1.33,45.52c-0.15,0.46-0.291,0.91-0.4,1.351c-0.5,1.95-0.561,3.79,0.32,5.859
	c0.02,0.051,0.039,0.11,0.049,0.16c0.471,1.22,0.441,2.78,0.172,4.141C1.439,57.2,1.41,57.359,1.369,57.52
	c-1.539,6.37-1.68,7.73,3.021,9.33c0.779,0.271,1.689,0.54,2.75,0.84c5.219,1.49,8.229,4.75,9.59,9.78
	c0.43,1.59,0.68,3.23,0.91,4.87c0.139,0.95,0.309,1.89,0.51,2.81c0.24,0.87,0.5,1.74,0.779,2.601c0.67,2.05,1.711,3.99,2.75,5.91
	c0.01,0.02,0.02,0.029,0.029,0.05c0.33,0.479,0.691,0.96,1.07,1.42c0.25,0.3,0.73,0.46,1.201,0.53
	c0.41-0.141,0.859-0.92,0.889-1.431c0.141-2.449,0.211-4.909,0.281-7.37c-0.01-1.71-0.01-3.409-0.01-5.119
	c0-1.181,0.25-2.2,0.729-3.03c0.031-0.08,0.08-0.15,0.121-0.22c0.07-0.11,0.139-0.21,0.209-0.301c1.111-1.56,3.07-2.3,5.51-1.96
	c2.271,0.33,4.551,0.67,6.84,0.771c0.471,0.02,0.932,0.02,1.4,0h0.061c2.289-0.101,4.57-0.44,6.85-0.771
	c2.439-0.34,4.42,0.41,5.52,1.99c0.08,0.09,0.131,0.18,0.191,0.271c0.039,0.069,0.09,0.14,0.119,0.22c0.48,0.83,0.73,1.85,0.73,3.03
	c0,1.72,0,3.439-0.01,5.149c0.07,2.45,0.139,4.9,0.279,7.34c0.031,0.511,0.48,1.29,0.9,1.431c0.471-0.07,0.949-0.23,1.189-0.53
	c0.381-0.46,0.74-0.94,1.07-1.42c0.01-0.021,0.02-0.03,0.029-0.05c1.041-1.92,2.08-3.86,2.762-5.91c0.26-0.79,0.5-1.59,0.719-2.391
	c0.23-0.989,0.41-2,0.561-3.02c0.24-1.64,0.48-3.28,0.91-4.87c1.369-5.03,4.369-8.29,9.6-9.78c1.061-0.3,1.971-0.569,2.75-0.84
	c4.699-1.6,4.561-2.96,3.01-9.33c-0.039-0.149-0.07-0.3-0.1-0.46c0-0.01,0-0.01,0-0.02c-0.27-1.34-0.301-2.891,0.16-4.101
	c0.01-0.069,0.039-0.14,0.07-0.21c0.869-2.069,0.809-3.909,0.309-5.859c0-0.011,0-0.011,0-0.021c-0.02-0.3-0.029-0.59-0.029-0.88
	c0.029-2.13-0.07-4.29,0.27-6.37C78.23,37.37,78.459,35.16,78.529,32.96z M31.971,51.47c-0.102,1.32-0.811,2.521-2,3.46
	c-0.98,0.8-2.291,1.42-3.852,1.78c-3.049,0.7-6.1,1.39-9.16,2.01c-1.869,0.38-3.318,0.351-4.41-0.11
	c-0.6-0.26-1.078-0.64-1.449-1.17c-0.699-0.96-1.029-2.38-1.039-4.29c-0.031-5.239,2.16-8.55,5.6-9.239
	c0.789-0.16,1.66-0.19,2.57-0.061c1.279,0.181,2.67,0.641,4.139,1.42c0.221,0.12,0.441,0.23,0.66,0.34
	c1.881,0.921,3.721,1.511,5.84,1.7C31.4,47.55,32.17,48.859,31.971,51.47z M67.49,57.399c-0.371,0.551-0.871,0.95-1.48,1.21
	c-1.08,0.461-2.539,0.49-4.4,0.11c-3.07-0.62-6.119-1.31-9.16-2.01c-1.5-0.351-2.77-0.94-3.74-1.69
	c-0.02-0.01-0.029-0.02-0.049-0.04c-1.23-0.949-1.961-2.17-2.061-3.51c-0.199-2.61,0.561-3.92,3.09-4.16
	c2.121-0.189,3.951-0.77,5.82-1.689c0.23-0.11,0.449-0.23,0.68-0.351c1.471-0.779,2.859-1.239,4.141-1.42
	c0.92-0.13,1.789-0.1,2.58,0.07c3.439,0.689,5.619,4,5.59,9.229C68.49,55.03,68.17,56.439,67.49,57.399z"/>
</svg>
