<?xml version="1.0" encoding="utf-8"?>
<!-- Generator: Adobe Illustrator 16.0.3, SVG Export Plug-In . SVG Version: 6.00 Build 0)  -->
<!DOCTYPE svg PUBLIC "-//W3C//DTD SVG 1.1//EN" "http://www.w3.org/Graphics/SVG/1.1/DTD/svg11.dtd">
<svg version="1.1" id="Layer_1" xmlns="http://www.w3.org/2000/svg" xmlns:xlink="http://www.w3.org/1999/xlink" x="0px" y="0px"
	 width="78.56px" height="95.908px" viewBox="0 0 78.56 95.908" enable-background="new 0 0 78.56 95.908" xml:space="preserve">
<g>
	<path d="M39.309,95.587c-0.121,0-0.229-0.077-0.269-0.191c-3.769-11.056-3.581-21.276-3.383-32.098
		c0.044-2.378,0.088-4.787,0.092-7.245c0-3.421-0.222-6.858-0.657-10.219c-0.01-0.074,0.011-0.149,0.057-0.209
		c1.59-2.073,2.188-5.359-0.252-7.675c-1.502-1.422-5.705-2.453-9.994-2.453c-3.968,0-7.097,0.866-8.369,2.317
		c-0.051,0.06-0.125,0.094-0.203,0.097c-0.003,0-0.007,0-0.01,0c-0.074,0-0.146-0.029-0.199-0.082
		c-0.945-0.937-1.319-2.225-1.083-3.725c0.304-1.931,1.62-3.937,3.061-4.665c0.041-0.021,0.085-0.03,0.128-0.03
		c0.084,0,0.166,0.037,0.222,0.106c2.061,2.589,6.085,2.921,9.36,2.921c1.189,0,2.375-0.048,3.521-0.094
		c0.562-0.022,1.11-0.045,1.64-0.061C24.5,28.315,21.338,19.56,22.643,12.637c1.122-5.954,6.085-12.315,16.649-12.315
		c10.565,0,15.524,6.359,16.643,12.312c1.302,6.929-1.87,15.688-10.353,19.65c0.532,0.016,1.085,0.037,1.65,0.061
		c1.157,0.046,2.354,0.095,3.555,0.095c3.292,0,7.334-0.332,9.398-2.923c0.056-0.069,0.138-0.106,0.222-0.106
		c0.043,0,0.087,0.01,0.128,0.03c1.368,0.691,2.646,2.666,2.971,4.594c0.257,1.521-0.094,2.868-0.986,3.792
		c-0.054,0.055-0.127,0.086-0.204,0.086c-0.002,0-0.005,0-0.007,0c-0.079-0.002-0.154-0.037-0.206-0.097
		c-1.251-1.425-4.6-2.276-8.957-2.276c-3.239,0-6.285,0.494-7.759,1.258c-1.362,0.698-2.338,1.942-2.747,3.505
		c-0.469,1.784-0.126,3.732,0.938,5.346c0.036,0.055,0.053,0.12,0.046,0.186l-0.271,2.541c-0.353,3.26-0.484,4.479-0.484,7.68
		c0.004,2.454,0.048,4.86,0.092,7.235c0.198,10.824,0.386,21.048-3.383,32.107C39.538,95.51,39.43,95.587,39.309,95.587z
		 M39.167,6.46c-1.976,0-3.938,0.564-5.835,1.677c-3.712,2.183-5.638,6.202-5.149,10.751c0.537,5.015,3.804,9.261,8.366,10.924
		c0.006-0.37,0.02-0.744,0.034-1.12c0.101-2.68,0.195-5.212-2.404-6.901c-0.092-0.06-0.142-0.166-0.127-0.274
		s0.09-0.199,0.194-0.232c2.077-0.671,3.65-2.119,4.81-4.425c0.048-0.096,0.146-0.156,0.253-0.156c0,0,0,0,0.001,0
		c0.107,0,0.205,0.061,0.253,0.157c0.779,1.568,2.245,3.608,4.809,4.423c0.104,0.033,0.181,0.124,0.195,0.232
		s-0.035,0.216-0.127,0.275c-2.601,1.689-2.505,4.211-2.405,6.881c0.015,0.374,0.028,0.746,0.034,1.114
		c4.59-1.755,8.398-7.143,8.398-11.979C50.467,12.45,45.635,6.46,39.167,6.46z"/>
</g>
</svg>
